<svg width="141" height="140" viewBox="0 0 141 140" fill="none" xmlns="http://www.w3.org/2000/svg">
<rect opacity="0.1" x="0.663086" width="140" height="140" rx="39.2683" fill="#4A3AFF"/>
<path d="M80.2464 41.7299C80.2464 44.137 79.3108 46.3261 77.7803 47.952L89.6976 62.8486C89.8596 63.0519 90.0864 63.1935 90.3401 63.2497C90.5939 63.3059 90.8593 63.2734 91.0919 63.1575L103.127 57.1352C102.867 55.8176 102.902 54.4587 103.229 53.1561C103.556 51.8535 104.168 50.6394 105.02 49.601C105.871 48.5626 106.942 47.7255 108.156 47.1499C109.369 46.5742 110.695 46.2743 112.038 46.2716C114.271 46.272 116.426 47.095 118.09 48.5834C119.755 50.0718 120.813 52.1212 121.063 54.3403C121.312 56.5593 120.735 58.7925 119.443 60.6133C118.15 62.4341 116.232 63.715 114.055 64.2111L105.861 107.916C105.519 109.737 104.551 111.382 103.125 112.565C101.698 113.749 99.9032 114.397 98.0497 114.397H44.2764C42.4229 114.397 40.6277 113.749 39.2013 112.565C37.7748 111.382 36.8068 109.737 36.4647 107.916L28.2716 64.2111C26.5304 63.8142 24.9448 62.9127 23.7131 61.6194C22.4815 60.3262 21.6584 58.6985 21.3468 56.94C21.0351 55.1815 21.2488 53.3702 21.9611 51.7324C22.6733 50.0947 23.8526 48.7033 25.3513 47.7321C26.8501 46.761 28.6019 46.2532 30.3877 46.2723C32.1735 46.2913 33.9141 46.8364 35.3918 47.8394C36.8695 48.8423 38.0188 50.2586 38.6959 51.9112C39.373 53.5637 39.5479 55.3792 39.1988 57.1307L51.2342 63.1529C51.4669 63.2688 51.7323 63.3014 51.986 63.2452C52.2398 63.189 52.4666 63.0474 52.6285 62.8441L64.5459 47.9474C63.5305 46.8677 62.7948 45.5559 62.403 44.1264C62.0111 42.697 61.975 41.1934 62.2978 39.7468C62.6205 38.3002 63.2924 36.9546 64.2547 35.8273C65.2171 34.7001 66.4407 33.8254 67.8187 33.2797C69.1967 32.734 70.6874 32.5338 72.1606 32.6965C73.6338 32.8593 75.0448 33.3801 76.2705 34.2135C77.4961 35.0469 78.4992 36.1676 79.1923 37.4777C79.8853 38.7879 80.2472 40.2477 80.2464 41.7299ZM71.1631 96.2299C73.5721 96.2299 75.8825 95.2729 77.586 93.5695C79.2894 91.866 80.2464 89.5556 80.2464 87.1466C80.2464 84.7375 79.2894 82.4271 77.586 80.7237C75.8825 79.0202 73.5721 78.0632 71.1631 78.0632C68.754 78.0632 66.4436 79.0202 64.7402 80.7237C63.0367 82.4271 62.0797 84.7375 62.0797 87.1466C62.0797 89.5556 63.0367 91.866 64.7402 93.5695C66.4436 95.2729 68.754 96.2299 71.1631 96.2299Z" fill="#5D01E0"/>
</svg>
